<?xml version="1.0" standalone="no"?>
<!DOCTYPE svg PUBLIC "-//W3C//DTD SVG 20010904//EN"
 "http://www.w3.org/TR/2001/REC-SVG-20010904/DTD/svg10.dtd">
<svg version="1.0" xmlns="http://www.w3.org/2000/svg"
 width="630.000000pt" height="630.000000pt" viewBox="0 0 630.000000 630.000000"
 preserveAspectRatio="xMidYMid meet">
<metadata>
Created by potrace 1.11, written by Peter Selinger 2001-2013
</metadata>
<g transform="translate(0.000000,630.000000) scale(0.100000,-0.100000)"
fill="#000000" stroke="none">
<path d="M10 3150 l0 -3150 3145 0 3145 0 0 3150 0 3150 -3145 0 -3145 0 0
-3150z m3517 1518 c49 -62 170 -214 268 -338 98 -124 288 -362 421 -530 134
-168 317 -399 408 -514 l166 -209 0 847 0 846 125 0 125 0 0 -1207 0 -1208
-32 40 c-18 21 -51 62 -73 91 -37 48 -111 142 -470 594 -72 91 -217 273 -321
405 -104 132 -248 314 -319 404 l-130 163 -5 -1263 -5 -1264 -119 -3 c-89 -2
-121 1 -128 10 -7 12 -12 3248 -5 3248 2 0 44 -51 94 -112z m1813 -1524 c0
-893 -4 -1624 -8 -1624 -5 1 -283 347 -447 558 -172 222 -888 1123 -896 1128
-5 3 -9 -370 -9 -840 l0 -846 -125 0 -125 0 0 1207 c0 1053 2 1205 14 1193 14
-14 85 -103 746 -936 156 -197 354 -447 440 -554 l155 -195 3 1270 2 1270 125
-3 125 -3 0 -1625z m-4110 2 l0 -1625 -122 2 -123 2 -3 1623 -2 1622 125 0
125 0 0 -1624z m298 967 l2 -653 395 0 395 0 0 655 0 655 125 0 125 0 0 -780
0 -780 -645 0 -645 0 0 780 0 781 123 -3 122 -3 3 -652z m1340 -965 l-3 -1623
-122 -2 -123 -1 0 1624 0 1624 125 0 125 0 -2 -1622z m-300 -800 l-3 -823
-120 0 -120 0 -3 693 -2 692 -395 0 -395 0 -2 -692 -3 -693 -122 -3 -123 -3 0
826 0 825 645 0 645 0 -2 -822z"/>
</g>
</svg>
